<svg xmlns="http://www.w3.org/2000/svg" xmlns:xlink="http://www.w3.org/1999/xlink" width="20.988" height="27.414" viewBox="0 0 20.988 27.414">
  <defs>
    <clipPath id="clip-path">
      <rect id="Rectangle_44" data-name="Rectangle 44" width="20.988" height="27.414" fill="#f26611"/>
    </clipPath>
  </defs>
  <g id="Group_277" data-name="Group 277" clip-path="url(#clip-path)">
    <path id="Path_493" data-name="Path 493" d="M12.129,303.658h0a1.445,1.445,0,0,1,1.445-1.445H29.7a1.445,1.445,0,0,1,0,2.891H13.574a1.445,1.445,0,0,1-1.445-1.445" transform="translate(-11.145 -277.689)" fill="#f26611"/>
    <path class="arrow" id="Path_494" data-name="Path 494" d="M18.521,10l-6.582,6.582V1.445A1.445,1.445,0,0,0,10.494,0h0A1.445,1.445,0,0,0,9.048,1.445V16.577L2.467,10A1.445,1.445,0,0,0,.423,10h0a1.445,1.445,0,0,0,0,2.044l7.6,7.6a3.489,3.489,0,0,0,4.934,0l7.6-7.6A1.445,1.445,0,1,0,18.521,10" transform="translate(0 0)" fill="#f26611"/>
  </g>
</svg>
