<svg xmlns="http://www.w3.org/2000/svg" width="165.825" height="116.701" viewBox="0 0 165.825 116.701">
  <path id="Path_47" data-name="Path 47" d="M432.361,34.935c-5.986-7.115-17.037-10.018-38.143-10.018H317.6c-21.589,0-32.827,3.09-38.791,10.665C273,42.968,273,53.851,273,68.914V97.622c0,29.18,6.9,44,44.6,44h76.614c18.3,0,28.445-2.561,35.006-8.841,6.729-6.439,9.6-16.953,9.6-35.155V68.914C438.825,53.029,438.375,42.082,432.361,34.935Zm-52.9,52.3-34.79,18.182a5.349,5.349,0,0,1-7.827-4.741V64.425a5.349,5.349,0,0,1,7.815-4.747l34.79,18.065a5.349,5.349,0,0,1,.012,9.488Z" transform="translate(-273 -24.917)" fill="#f26611"/>
</svg>
